<svg xmlns="http://www.w3.org/2000/svg" viewBox="0 0 320 320" width="320" height="320">
  <rect width="320" height="320" fill="#f8f3e8"/>
  <g fill="none" stroke-linecap="round" stroke-linejoin="round" stroke-width="1.8">
    <g stroke="#6f7f4e" transform="translate(12 10)">
      <path d="M8 26C21 7 42 7 55 24C39 39 22 39 8 26Z"/>
      <path d="M15 25C25 25 35 20 45 12"/>
      <path d="M29 25V33"/>
    </g>

    <g stroke="#8c9b73" transform="translate(82 10)">
      <circle cx="30" cy="17" r="13"/>
      <circle cx="20" cy="22" r="11"/>
      <circle cx="40" cy="23" r="10"/>
      <rect x="27" y="30" width="6" height="18" rx="2"/>
      <path d="M19 48H41"/>
    </g>

    <g stroke="#6f7f4e" transform="translate(152 10)">
      <path d="M18 30L31 8L44 30"/>
      <path d="M31 8L37 16H30"/>
      <path d="M44 30L35 30L39 22"/>
      <path d="M18 30L24 22L26 30"/>
      <path d="M24 33H38"/>
    </g>

    <g stroke="#8b6f4e" transform="translate(224 8)">
      <path d="M10 18H31"/>
      <path d="M18 18V12H37V18"/>
      <path d="M37 18V27"/>
      <path d="M27 41C27 33 33 30 37 25C41 30 47 33 47 41C47 47 42 52 37 52C32 52 27 47 27 41Z"/>
      <path d="M37 31V45"/>
    </g>

    <g stroke="#8c9b73" transform="translate(10 82)">
      <rect x="8" y="24" width="42" height="22" rx="2"/>
      <path d="M14 30H44M14 36H44M21 24V46M29 24V46M37 24V46"/>
      <circle cx="50" cy="16" r="6"/>
      <path d="M50 7V3M50 29V25M41 16H37M63 16H59"/>
    </g>

    <g stroke="#6f7f4e" transform="translate(84 82)">
      <path d="M30 50V18"/>
      <path d="M30 18L19 24"/>
      <path d="M30 18L41 24"/>
      <path d="M30 18V6"/>
      <path d="M30 6L22 12"/>
      <path d="M30 6L38 12"/>
      <path d="M24 50H36"/>
    </g>

    <g stroke="#8b6f4e" transform="translate(150 82)">
      <circle cx="16" cy="38" r="10"/>
      <circle cx="46" cy="38" r="10"/>
      <path d="M16 38H29L39 24L46 38"/>
      <path d="M29 38L35 38"/>
      <path d="M29 24H39"/>
      <path d="M33 24V19"/>
    </g>

    <g stroke="#8c9b73" transform="translate(222 82)">
      <path d="M11 26H38L35 49H14L11 26Z"/>
      <path d="M18 26C18 20 22 16 25 16C28 16 32 20 32 26"/>
      <path d="M43 22H53V49H43Z"/>
      <path d="M46 22V16H50V22"/>
    </g>

    <g stroke="#6f7f4e" transform="translate(10 154)">
      <path d="M12 28C16 24 21 24 25 28"/>
      <path d="M30 22C36 14 45 14 51 22"/>
      <path d="M43 22L46 19"/>
      <path d="M48 23L52 20"/>
      <path d="M17 44C17 34 24 29 32 29C40 29 47 34 47 44"/>
      <path d="M32 29V44"/>
    </g>

    <g stroke="#8b6f4e" transform="translate(82 154)">
      <ellipse cx="18" cy="28" rx="8" ry="6"/>
      <path d="M10 28H6M30 28H26"/>
      <path d="M16 23V20M20 23V20"/>
      <ellipse cx="46" cy="38" rx="13" ry="8"/>
      <circle cx="58" cy="36" r="4"/>
      <path d="M34 39H28M40 45V49M48 45V49"/>
    </g>

    <g stroke="#6f7f4e" transform="translate(148 154)">
      <circle cx="20" cy="20" r="4"/>
      <path d="M20 24V33"/>
      <path d="M20 28L12 34"/>
      <path d="M20 33L27 42"/>
      <path d="M36 44V29"/>
      <path d="M36 32C30 31 28 26 28 22C33 22 36 25 36 32"/>
      <path d="M36 35C42 34 45 29 45 25C40 25 37 28 36 35"/>
      <path d="M30 44H45"/>
    </g>

    <g stroke="#8c9b73" transform="translate(220 154)">
      <circle cx="28" cy="30" r="18"/>
      <path d="M10 30H46M28 12V48"/>
      <path d="M14 20C20 24 36 24 42 20"/>
      <path d="M14 40C20 36 36 36 42 40"/>
    </g>

    <g stroke="#8b6f4e" transform="translate(12 226)">
      <path d="M8 44C14 30 30 24 48 29C54 31 57 36 57 44Z"/>
      <path d="M24 29C26 23 30 20 34 19C34 23 31 27 24 29Z"/>
      <path d="M20 44H49"/>
    </g>

    <g stroke="#6f7f4e" transform="translate(82 226)">
      <rect x="4" y="24" width="16" height="22" rx="2"/>
      <path d="M7 24V19H17V24"/>
      <text x="8" y="37" fill="#6f7f4e" font-size="6" font-family="Arial, sans-serif">O</text>
      <rect x="24" y="24" width="16" height="22" rx="2"/>
      <path d="M27 24V19H37V24"/>
      <text x="30" y="37" fill="#6f7f4e" font-size="6" font-family="Arial, sans-serif">I</text>
      <rect x="44" y="24" width="16" height="22" rx="2"/>
      <path d="M47 24V19H57V24"/>
      <text x="47" y="37" fill="#6f7f4e" font-size="6" font-family="Arial, sans-serif">B3</text>
    </g>

    <g stroke="#8c9b73" transform="translate(154 224)">
      <path d="M25 46V40"/>
      <path d="M17 40H33"/>
      <path d="M18 39V34C18 28 22 24 25 20C28 24 32 28 32 34V39Z"/>
      <path d="M25 30C21 30 18 27 17 23C21 23 24 25 25 30Z"/>
      <path d="M25 30C29 30 32 27 33 23C29 23 26 25 25 30Z"/>
    </g>

    <g stroke="#6f7f4e" transform="translate(220 228)">
      <text x="2" y="26" fill="#6f7f4e" font-size="12" font-family="Arial, sans-serif">GO GREEN</text>
      <path d="M24 46V35"/>
      <path d="M24 39C18 38 16 33 16 29C21 29 24 32 24 39"/>
      <path d="M24 41C30 40 33 35 33 31C28 31 25 34 24 41"/>
    </g>

    <g stroke="#8b6f4e" opacity="0.6">
      <path d="M70 74l4 4M74 74l-4 4"/>
      <path d="M192 70l4 4M196 70l-4 4"/>
      <circle cx="134" cy="112" r="1.4"/>
      <circle cx="273" cy="130" r="1.4"/>
      <path d="M64 206l3 3M67 206l-3 3"/>
      <path d="M204 206l3 3M207 206l-3 3"/>
      <circle cx="286" cy="196" r="1.4"/>
      <circle cx="144" cy="278" r="1.4"/>
    </g>
  </g>
</svg>
